<?xml version="1.0" encoding="UTF-8"?>
<svg id="Layer_2" data-name="Layer 2" xmlns="http://www.w3.org/2000/svg" viewBox="0 0 595.05 149.95">
  <defs>
    <style>
      .cls-1 {
        fill: #fff;
      }

      .cls-2 {
        fill: #3d2ede;
      }
    </style>
  </defs>
  <g id="Banner_1" data-name="Banner 1">
    <g id="Text">
      <g>
        <g>
          <path class="cls-1" d="m170.8,107.5c-2,1.42-4.45,2.49-7.36,3.2-2.91.71-5.97,1.07-9.18,1.07-8.34,0-14.79-2.05-19.35-6.15-4.56-4.1-6.84-10.12-6.84-18.07v-27.74h-10.16v-17.78h10.16v-15.24h20.32v17.78h17.78v15.24h-17.78v27.49c0,2.84.76,5.04,2.28,6.59,1.52,1.55,3.67,2.32,6.45,2.32,3.21,0,5.95-.84,8.21-2.51l5.47,13.81Z"/>
          <path class="cls-1" d="m237.39,49.63c5.02,5.02,7.53,12.47,7.53,22.34v38.65h-17.78v-35.64c0-5.35-1.2-9.35-3.59-11.98-2.39-2.63-5.85-3.95-10.38-3.95-5.04,0-9.05,1.53-12.04,4.58-2.99,3.05-4.48,7.59-4.48,13.61v33.38h-20.32V14.96h20.32v35.17c2.53-2.59,5.59-4.58,9.19-5.96,3.59-1.38,7.51-2.07,11.76-2.07,8.17,0,14.76,2.51,19.78,7.53Z"/>
          <path class="cls-1" d="m325.79,82.67h-51.08c.92,4.19,3.09,7.49,6.53,9.92,3.43,2.43,7.7,3.64,12.8,3.64,3.51,0,6.63-.52,9.35-1.57,2.72-1.04,5.25-2.7,7.59-4.96l10.42,11.3c-6.36,7.28-15.65,10.92-27.86,10.92-7.61,0-14.35-1.49-20.2-4.46-5.86-2.97-10.37-7.09-13.55-12.36-3.18-5.27-4.77-11.25-4.77-17.94s1.57-12.57,4.71-17.88c3.14-5.31,7.45-9.45,12.93-12.42,5.48-2.97,11.61-4.46,18.38-4.46s12.59,1.42,17.95,4.27c5.35,2.85,9.56,6.92,12.61,12.24,3.05,5.31,4.58,11.48,4.58,18.51,0,.25-.13,2.01-.38,5.27Zm-45.81-22.99c-3.01,2.51-4.85,5.94-5.52,10.29h33.26c-.67-4.27-2.51-7.68-5.52-10.23-3.01-2.55-6.69-3.83-11.04-3.83s-8.16,1.26-11.17,3.77Z"/>
          <path class="cls-1" d="m447.44,105.7c-5.65-2.97-10.06-7.09-13.24-12.36-3.18-5.27-4.77-11.25-4.77-17.94s1.59-12.68,4.77-17.95c3.18-5.27,7.59-9.39,13.24-12.36,5.65-2.97,12.03-4.46,19.14-4.46s13.47,1.49,19.08,4.46c5.6,2.97,10,7.09,13.18,12.36,3.18,5.27,4.77,11.25,4.77,17.95s-1.59,12.67-4.77,17.94c-3.18,5.27-7.57,9.39-13.18,12.36-5.61,2.97-11.97,4.46-19.08,4.46s-13.49-1.49-19.14-4.46Zm31.5-16.69c3.22-3.39,4.83-7.93,4.83-13.61s-1.61-10.23-4.83-13.62c-3.22-3.39-7.34-5.08-12.36-5.08s-9.16,1.69-12.42,5.08c-3.26,3.39-4.89,7.93-4.89,13.62s1.63,10.23,4.89,13.61c3.26,3.39,7.4,5.08,12.42,5.08s9.14-1.69,12.36-5.08Z"/>
          <path class="cls-1" d="m511.67,14.96h20.32v93.12h-20.32V14.96Z"/>
          <path class="cls-1" d="m595.05,104.96c-2,1.42-4.45,2.49-7.36,3.2-2.91.71-5.97,1.07-9.18,1.07-8.34,0-14.79-2.05-19.35-6.15-4.56-4.1-6.84-10.12-6.84-18.07v-27.74h-10.16v-15.24h10.16v-15.24h20.32v15.24h17.78v15.24h-17.78v27.49c0,2.84.76,5.04,2.28,6.59,1.52,1.55,3.67,2.32,6.45,2.32,3.21,0,5.95-.84,8.21-2.51l5.47,13.81Z"/>
          <path class="cls-1" d="m421.4,57.13c-2.93-5.23-6.96-9.29-12.11-12.17-5.15-2.89-10.86-4.33-17.13-4.33-8.62,0-20.21,8.16-20.21,8.16V16.62h-20.32v93.99h17.78v-9.25c6.39,5.86,13.46,8.78,22.75,8.78,6.27,0,11.98-1.44,17.13-4.33,5.15-2.89,9.18-6.94,12.11-12.17,2.93-5.23,4.39-11.32,4.39-18.26s-1.46-13.03-4.39-18.26Zm-20.27,31.88c-3.22,3.39-7.34,5.08-12.36,5.08s-9.14-1.69-12.36-5.08c-3.22-3.39-4.83-7.93-4.83-13.61s1.61-10.23,4.83-13.62c3.22-3.39,7.34-5.08,12.36-5.08s9.14,1.69,12.36,5.08c3.22,3.39,4.83,7.93,4.83,13.62s-1.61,10.23-4.83,13.61Z"/>
        </g>
        <path class="cls-2" d="m16.67.68L.02,87.43c-.1.54.25,1.06.72,1.06h27.52c.49,0,.85.55.71,1.11l-14.26,59.24c-.21.88.73,1.5,1.26.83L86.58,59.78c.44-.56.1-1.46-.54-1.46h-32.3c-.57,0-.93-.74-.62-1.32L82.22,1.32c.3-.58-.05-1.32-.62-1.32H17.39c-.34,0-.64.28-.72.68Z"/>
      </g>
    </g>
  </g>
</svg>